<svg xmlns="http://www.w3.org/2000/svg" viewBox="0 0 120 48" fill="none" role="img" aria-label="UBS">
  <path fill="currentColor" d="M18 8c-5.5 0-10 4.5-10 10v12c0 5.5 4.5 10 10 10s10-4.5 10-10V18c0-5.5-4.5-10-10-10zm0 4c3.3 0 6 2.7 6 6v12c0 3.3-2.7 6-6 6s-6-2.7-6-6V18c0-3.3 2.7-6 6-6z"/>
  <path fill="currentColor" d="M18 14l-4 4 4 4 4-4-4-4zm0 8l-4 4 4 4 4-4-4-4z" opacity="0.85"/>
  <text x="38" y="32" fill="currentColor" font-family="Arial, Helvetica, sans-serif" font-size="22" font-weight="700" letter-spacing="0.08em">UBS</text>
</svg>
